<svg width="24" height="24" viewBox="0 0 24 24" fill="none" xmlns="http://www.w3.org/2000/svg">
<rect x="2" y="19" width="20" height="1" rx="0.5" fill="#FFB300"/>
<path d="M4 6H8V17C8 17.5523 7.55228 18 7 18H5C4.44772 18 4 17.5523 4 17V6Z" fill="#FFB300"/>
<path d="M4 3C4 2.44772 4.44772 2 5 2H7C7.55228 2 8 2.44772 8 3V5H4V3Z" fill="#FFB300"/>
<path d="M9 6C9 5.44772 9.44772 5 10 5H11C11.5523 5 12 5.44772 12 6V14H9V6Z" fill="#FFB300"/>
<path d="M9 15H12V17C12 17.5523 11.5523 18 11 18H10C9.44772 18 9 17.5523 9 17V15Z" fill="#FFB300"/>
<path d="M13.3146 6.96774C13.1405 6.44655 13.4195 5.88252 13.9395 5.7047L15.0464 5.32612C15.5719 5.14642 16.1431 5.42926 16.3187 5.95609L19.6838 16.0513C19.8584 16.5753 19.5753 17.1416 19.0513 17.3162L17.9481 17.684C17.4244 17.8585 16.8583 17.5757 16.6834 17.0521L13.3146 6.96774Z" fill="#FFB300"/>
</svg>
